<?xml version="1.0" encoding="UTF-8"?>
<svg width="128" height="128" viewBox="0 0 128 128" xmlns="http://www.w3.org/2000/svg">
    <!-- 당근 본체 -->
    <path d="M64 20 
             C64 20, 80 20, 80 30
             C80 40, 75 45, 70 45
             C65 45, 60 40, 60 30
             C60 20, 64 20, 64 20
             L64 108
             C64 108, 50 108, 50 98
             C50 88, 45 83, 40 83
             C35 83, 30 88, 30 98
             C30 108, 64 108, 64 108" 
          fill="#FF6B35"/>
    <!-- 당근 잎 -->
    <path d="M64 20 
             C64 20, 85 10, 95 20 
             C105 30, 95 40, 85 30 
             C75 20, 64 20, 64 20" 
          fill="#4CAF50"/>
    <path d="M64 20 
             C64 20, 43 10, 33 20 
             C23 30, 33 40, 43 30 
             C53 20, 64 20, 64 20" 
          fill="#4CAF50"/>
    <path d="M64 20 
             C64 20, 75 15, 80 20 
             C85 25, 80 30, 75 25 
             C70 20, 64 20, 64 20" 
          fill="#4CAF50"/>
    <path d="M64 20 
             C64 20, 53 15, 48 20 
             C43 25, 48 30, 53 25 
             C58 20, 64 20, 64 20" 
          fill="#4CAF50"/>
</svg> 